<?xml version="1.0" encoding="UTF-8"?>
<svg width="1600" height="1600" viewBox="0 0 16 16"  xmlns="http://www.w3.org/2000/svg">
<g id="surface84752484">
<path style=" stroke:none;fill-rule:nonzero;fill:rgb(100%,100%,100%);fill-opacity:1;" d="M 800 250 C 1103.75 250 1350 496.25 1350 800 C 1350 1044.199219 1190.773438 1251.125 970.523438 1322.898438 C 970.574219 1322.699219 970.675781 1322.375 970.675781 1322.375 C 970.675781 1322.375 933.550781 1304.976562 934.351562 1273.925781 C 935.226562 1239.75 934.351562 1160.023438 934.351562 1130.75 C 934.351562 1080.5 902.550781 1044.898438 902.550781 1044.898438 C 902.550781 1044.898438 1151.976562 1047.699219 1151.976562 781.574219 C 1151.976562 678.898438 1098.300781 625.449219 1098.300781 625.449219 C 1098.300781 625.449219 1126.5 515.824219 1088.550781 469.324219 C 1046.023438 464.726562 969.824219 509.976562 937.300781 531.125 C 937.300781 531.125 885.75 509.976562 800 509.976562 C 714.25 509.976562 662.699219 531.125 662.699219 531.125 C 630.175781 509.976562 554 464.726562 511.449219 469.324219 C 473.5 515.824219 501.699219 625.449219 501.699219 625.449219 C 501.699219 625.449219 448.023438 678.875 448.023438 781.574219 C 448.023438 1047.699219 697.449219 1044.898438 697.449219 1044.898438 C 697.449219 1044.898438 672.324219 1073.300781 666.824219 1115.050781 C 649.425781 1120.949219 623.800781 1128.25 603.101562 1128.25 C 548.976562 1128.25 507.800781 1075.625 492.699219 1051.300781 C 477.824219 1027.300781 447.324219 1007.148438 418.875 1007.148438 C 400.148438 1007.148438 391 1016.523438 391 1027.226562 C 391 1037.925781 417.25 1045.398438 434.574219 1065.25 C 471.101562 1107.101562 470.449219 1201.199219 600.601562 1201.199219 C 614.726562 1201.199219 643.574219 1197.726562 665.300781 1194.800781 C 665.175781 1224.425781 665.125 1255.699219 665.601562 1273.976562 C 666.375 1305.023438 629.273438 1322.425781 629.273438 1322.425781 C 629.273438 1322.425781 629.375 1322.726562 629.425781 1322.949219 C 409.226562 1251.125 250 1044.199219 250 800 C 250 496.25 496.25 250 800 250 Z M 800 250 "/>
</g>
</svg>
