<?xml version="1.0" encoding="utf-8"?>
<!-- Generator: Adobe Illustrator 24.0.2, SVG Export Plug-In . SVG Version: 6.00 Build 0)  -->
<svg version="1.1" id="Capa_1" xmlns="http://www.w3.org/2000/svg" xmlns:xlink="http://www.w3.org/1999/xlink" x="0px" y="0px"
	 viewBox="0 0 77.5 77.5" style="enable-background:new 0 0 77.5 77.5;" xml:space="preserve">
<style type="text/css">
	.st0{fill:#FFFFFF;}
</style>
<g id="surface84760565">
	<path class="st0" d="M38.8,4.2c-18.8,0-34,15.2-34,34c0,16.1,11.1,29.5,26.1,33.1c-0.8-0.2-1.5-0.4-2.3-0.6V63c0,0-1.3,0.4-3,0.4
		c-4.8,0-6.7-4.3-7.2-6.4c-0.3-1.3-1.1-2.5-1.9-3.3c-1-0.9-1.5-0.9-1.5-1.2c0-0.6,0.9-0.6,1.3-0.6c2.1,0,3.7,2.3,4.5,3.4
		c1.9,2.9,3.8,3.4,4.9,3.4c1.3,0,2.4-0.2,3.1-0.6c0.4-2.5,1.5-4.7,3.2-6.3c-8-1.6-13.6-6.2-13.6-13.6c0-3.8,1.5-7.4,4.1-10.2
		c-0.3-0.7-0.7-2.2-0.7-4.7c0-1.6,0.1-3.6,0.8-5.5c0,0,4.9,0,9.4,4.4c2.1-0.6,4.4-1,6.7-1s4.6,0.4,6.7,1c4.6-4.3,9.4-4.4,9.4-4.4
		c0.7,1.9,0.8,3.9,0.8,5.5c0,2.6-0.4,4.2-0.6,4.8c2.5,2.8,4,6.3,4,10.1c0,7.4-5.6,12-13.6,13.6c2.1,1.9,3.4,4.6,3.4,7.7v11.2
		c-0.8,0.2-1.5,0.4-2.3,0.6c15-3.6,26.1-17,26.1-33.1C72.9,19.5,57.6,4.2,38.8,4.2z M41.2,72.2c-0.8,0.1-1.6,0.1-2.4,0.1
		C39.6,72.3,40.4,72.3,41.2,72.2z M46.4,71.5c-1.5,0.3-3.1,0.6-4.7,0.7C43.3,72.1,44.9,71.8,46.4,71.5z M38.8,72.3
		c-0.8,0-1.6,0-2.4-0.1C37.2,72.3,38,72.3,38.8,72.3z M35.9,72.2c-1.6-0.1-3.2-0.4-4.7-0.7C32.8,71.8,34.3,72.1,35.9,72.2z"/>
</g>
</svg>
