<?xml version="1.0" encoding="UTF-8"?>
<svg xmlns="http://www.w3.org/2000/svg" xmlns:xlink="http://www.w3.org/1999/xlink" viewBox="0 0 144 144" width="144px" height="144px">
<g id="surface89227741">
<path style=" stroke:none;fill-rule:nonzero;fill:rgb(22.745098%,77.254903%,16.078432%);fill-opacity:1;" d="M 72.019531 136.257812 C 70.300781 136.257812 68.59375 135.808594 67.082031 134.9375 L 51.363281 125.628906 C 49.015625 124.3125 50.160156 123.847656 50.933594 123.582031 C 54.066406 122.488281 54.699219 122.238281 58.039062 120.339844 C 58.390625 120.136719 58.851562 120.210938 59.210938 120.421875 L 71.289062 127.589844 C 71.722656 127.828125 72.34375 127.828125 72.746094 127.589844 L 119.839844 100.40625 C 120.273438 100.15625 120.558594 99.652344 120.558594 99.136719 L 120.558594 44.796875 C 120.558594 44.253906 120.277344 43.769531 119.828125 43.5 L 72.757812 16.339844 C 72.324219 16.078125 71.746094 16.078125 71.308594 16.339844 L 24.246094 43.496094 C 23.789062 43.753906 23.5 44.261719 23.5 44.78125 L 23.5 99.121094 C 23.5 99.640625 23.78125 100.136719 24.230469 100.382812 L 37.128906 107.832031 C 44.128906 111.332031 48.40625 107.207031 48.40625 103.058594 L 48.40625 49.429688 C 48.40625 48.664062 49.007812 48.070312 49.777344 48.070312 L 55.738281 48.070312 C 56.484375 48.070312 57.097656 48.660156 57.097656 49.429688 L 57.097656 103.085938 C 57.097656 112.421875 52.003906 117.785156 43.152344 117.785156 C 40.429688 117.785156 38.28125 117.785156 32.296875 114.839844 L 19.941406 107.722656 C 16.886719 105.949219 15 102.648438 15 99.125 L 15 44.785156 C 15 41.246094 16.886719 37.945312 19.9375 36.199219 L 67.078125 9.007812 C 70.0625 7.320312 74.023438 7.320312 76.984375 9.007812 L 124.066406 36.214844 C 127.101562 37.96875 129 41.257812 129 44.796875 L 129 99.136719 C 129 102.664062 127.101562 105.949219 124.0625 107.722656 L 76.980469 134.914062 C 75.472656 135.785156 73.761719 136.234375 72.019531 136.234375 "/>
<path style=" stroke:none;fill-rule:nonzero;fill:rgb(22.745098%,77.254903%,16.078432%);fill-opacity:1;" d="M 86.566406 98.8125 C 65.964844 98.8125 61.644531 89.351562 61.644531 81.421875 C 61.644531 80.667969 62.253906 80.0625 63.007812 80.0625 L 69.09375 80.0625 C 69.765625 80.0625 70.332031 80.554688 70.4375 81.214844 C 71.355469 87.414062 74.089844 90.539062 86.550781 90.539062 C 96.472656 90.539062 100.695312 88.300781 100.695312 83.035156 C 100.695312 80.003906 99.492188 77.753906 84.074219 76.246094 C 71.179688 74.972656 63.210938 72.132812 63.210938 61.816406 C 63.210938 52.316406 71.226562 46.660156 84.652344 46.660156 C 99.730469 46.660156 107.203125 51.894531 108.144531 63.136719 C 108.179688 63.527344 108.039062 63.902344 107.777344 64.1875 C 107.519531 64.457031 107.152344 64.621094 106.777344 64.621094 L 100.660156 64.621094 C 100.023438 64.621094 99.46875 64.175781 99.339844 63.5625 C 97.867188 57.042969 94.304688 54.957031 84.625 54.957031 C 73.792969 54.957031 72.535156 58.726562 72.535156 61.558594 C 72.535156 64.984375 74.019531 65.988281 88.636719 67.921875 C 103.109375 69.84375 109.984375 72.554688 109.984375 82.726562 C 109.984375 92.980469 101.425781 98.863281 86.5 98.863281 "/>
</g>
</svg>
