<?xml version="1.0" encoding="UTF-8"?>
<svg xmlns="http://www.w3.org/2000/svg" xmlns:xlink="http://www.w3.org/1999/xlink" viewBox="0 0 144 144" width="144px" height="144px">
<g id="surface89211244">
<path style=" stroke:none;fill-rule:nonzero;fill:rgb(24.705882%,86.666667%,94.509804%);fill-opacity:1;" d="M 72 102 C 33.300781 102 3 88.800781 3 72 C 3 55.199219 33.300781 42 72 42 C 110.699219 42 141 55.199219 141 72 C 141 88.800781 110.699219 102 72 102 Z M 72 48 C 34.199219 48 9 60.300781 9 72 C 9 83.699219 34.199219 96 72 96 C 109.800781 96 135 83.699219 135 72 C 135 60.300781 109.800781 48 72 48 Z M 72 48 "/>
<path style=" stroke:none;fill-rule:nonzero;fill:rgb(24.705882%,86.666667%,94.509804%);fill-opacity:1;" d="M 45.300781 133.800781 C 42.300781 133.800781 39.898438 133.199219 37.5 131.699219 C 22.800781 123.300781 26.699219 90.601562 45.898438 57 C 54.898438 41.398438 66 28.199219 76.800781 19.800781 C 88.5 10.800781 99 8.101562 106.199219 12.300781 C 113.699219 16.5 116.398438 27 114.601562 41.699219 C 112.800781 55.5 106.800781 71.699219 97.800781 87.300781 C 88.800781 102.898438 77.699219 116.101562 66.898438 124.5 C 59.101562 130.5 51.601562 133.800781 45.300781 133.800781 Z M 98.699219 16.199219 C 93.898438 16.199219 87.601562 18.898438 80.699219 24.300781 C 70.5 32.398438 60 45 51.300781 60 C 32.398438 92.699219 30.601562 120.898438 40.5 126.601562 C 45.601562 129.601562 54 126.898438 63.300781 119.699219 C 73.5 111.601562 84 99 92.699219 84 C 101.398438 69 107.101562 53.699219 108.898438 40.800781 C 110.398438 28.800781 108.601562 20.398438 103.5 17.398438 C 102 16.800781 100.5 16.199219 98.699219 16.199219 Z M 98.699219 16.199219 "/>
<path style=" stroke:none;fill-rule:nonzero;fill:rgb(24.705882%,86.666667%,94.509804%);fill-opacity:1;" d="M 99 133.800781 C 84 133.800781 62.398438 115.5 46.199219 87 C 26.699219 53.398438 22.800781 20.699219 37.5 12.300781 C 52.199219 3.898438 78.601562 23.398438 98.101562 57 C 107.101562 72.601562 113.101562 88.800781 114.898438 102.601562 C 117 117.300781 114 127.5 106.5 132 C 104.101562 133.199219 101.699219 133.800781 99 133.800781 Z M 40.5 17.398438 C 30.601562 23.101562 32.398438 51.300781 51.300781 84 C 70.199219 116.699219 93.601562 132.300781 103.5 126.601562 C 108.601562 123.601562 110.398438 115.199219 108.898438 103.199219 C 107.101562 90.300781 101.398438 75 92.699219 60 C 73.800781 27.300781 50.398438 11.699219 40.5 17.398438 Z M 40.5 17.398438 "/>
<path style=" stroke:none;fill-rule:nonzero;fill:rgb(24.705882%,86.666667%,94.509804%);fill-opacity:1;" d="M 84 72 C 84 78.628906 78.628906 84 72 84 C 65.371094 84 60 78.628906 60 72 C 60 65.371094 65.371094 60 72 60 C 78.628906 60 84 65.371094 84 72 Z M 84 72 "/>
</g>
</svg>
